# xmcd
#
# Track frame offsets:
#	150
#	12577
#	21885
#	33932
#	44439
#	56220
#	67488
#	76746
#	89025
#	100775
#	111511
#	119661
#	130782
#	138938
#	148370
#	158758
#	170615
#	179015
#	187088
#	197403
#
# Disc length: 2843 seconds
#
# Revision: 0
# Processed by: cddbd v1.5.2PL0 Copyright (c) Steve Scherf et al.
# Submitted via: EZCDAudioConverter 3.1.0.1
#
DISCID=330b1914
DTITLE=Johnny Cash - Simply Johnny Cash
DYEAR=2014
DGENRE=Country and Folk
TTITLE0=Johnny Cash - I Walk The Line
TTITLE1=Johnny Cash - Luther Played The Boogie
TTITLE2=Johnny Cash - Give My Love To Rose
TTITLE3=Johnny Cash - Cold Cold Heart
TTITLE4=Johnny Cash - Home Of The Blues
TTITLE5=Johnny Cash - Big River
TTITLE6=Johnny Cash - Down The Street To 301
TTITLE7=Johnny Cash - Next In Line
TTITLE8=Johnny Cash - Thanks A Lot
TTITLE9=Johnny Cash - You Win Again
TTITLE10=Johnny Cash - Guess Things Happen That Way
TTITLE11=Johnny Cash - Cry, Cry, Cry
TTITLE12=Johnny Cash - Always Alone
TTITLE13=Johnny Cash - It's Just About Time
TTITLE14=Johnny Cash - There You Go
TTITLE15=Johnny Cash - So Doggone Lonesome
TTITLE16=Johnny Cash - I Forgot To Remember To Forget
TTITLE17=Johnny Cash - I Can't Help It (If I'm Still In Love With You)
TTITLE18=Johnny Cash and June Carter - If I Were A Carpenter
TTITLE19=Johnny Cash - A Boy Named Sue
EXTD=
EXTT0=
EXTT1=
EXTT2=
EXTT3=
EXTT4=
EXTT5=
EXTT6=
EXTT7=
EXTT8=
EXTT9=
EXTT10=
EXTT11=
EXTT12=
EXTT13=
EXTT14=
EXTT15=
EXTT16=
EXTT17=
EXTT18=
EXTT19=
PLAYORDER=
